<?xml version="1.0" encoding="utf-8"?>
<!-- Generator: Adobe Illustrator 25.0.1, SVG Export Plug-In . SVG Version: 6.00 Build 0)  -->
<svg version="1.1" id="Layer_1" xmlns="http://www.w3.org/2000/svg" xmlns:xlink="http://www.w3.org/1999/xlink" x="0px" y="0px"
	 viewBox="0 0 236.1 331.9" style="enable-background:new 0 0 236.1 331.9;" xml:space="preserve">
<style type="text/css">
	.st0{fill:#1E1E1F;}
	.st1{fill:#C3C4C4;}
</style>
<g>
	<g>
		<g>
			<g>
				<g>
					<polygon class="st0" points="103.1,107.8 103.1,182.4 167.7,219.8 232.4,182.4 232.4,107.8 167.7,70.5 					"/>
				</g>
				<g>
					<path class="st1" d="M89.5,247.3V295c0,0.4-0.2,0.8-0.5,1l-41.3,23.8c-0.4,0.2-0.8,0.2-1.1,0L5.3,296c-0.4-0.2-0.5-0.6-0.5-1
						v-47.7c0-0.4,0.2-0.8,0.5-1l41.3-23.8c0.4-0.2,0.8-0.2,1.1,0L89,246.3C89.3,246.6,89.5,246.9,89.5,247.3z M87.3,294.4V248
						l-40.2-23.2L6.9,248v46.4l40.2,23.2L87.3,294.4z"/>
				</g>
				<g>
					<path class="st1" d="M172,247.3V295c0,0.4-0.2,0.8-0.5,1l-41.3,23.8c-0.4,0.2-0.8,0.2-1.1,0L87.8,296c-0.4-0.2-0.5-0.6-0.5-1
						v-47.7c0-0.4,0.2-0.8,0.5-1l41.3-23.8c0.4-0.2,0.8-0.2,1.1,0l41.3,23.8C171.8,246.6,172,246.9,172,247.3z M169.8,294.4V248
						l-40.2-23.2L89.5,248v46.4l40.2,23.2L169.8,294.4z"/>
				</g>
				<g>
					<path class="st1" d="M130.7,175.8v47.7c0,0.4-0.2,0.8-0.5,1l-41.3,23.8c-0.4,0.2-0.8,0.2-1.1,0l-41.3-23.8
						c-0.4-0.2-0.5-0.6-0.5-1v-47.7c0-0.4,0.2-0.8,0.5-1L87.8,151c0.4-0.2,0.8-0.2,1.1,0l41.3,23.9
						C130.6,175.1,130.7,175.4,130.7,175.8z M128.5,222.9v-46.4l-40.2-23.2l-40.2,23.2v46.4L88.3,246L128.5,222.9z"/>
				</g>
				<g>
					<path class="st1" d="M213.3,175.8v47.7c0,0.4-0.2,0.8-0.5,1l-41.3,23.8c-0.4,0.2-0.8,0.2-1.1,0L129,224.5
						c-0.4-0.2-0.5-0.6-0.5-1v-47.7c0-0.4,0.2-0.8,0.5-1l41.3-23.8c0.4-0.2,0.8-0.2,1.1,0l41.3,23.8
						C213.1,175.1,213.3,175.4,213.3,175.8z M211,222.9v-46.4l-40.2-23.2l-40.2,23.2v46.4l40.2,23.2L211,222.9z"/>
				</g>
				<g>
					<path class="st1" d="M213.3,32.9v47.7c0,0.4-0.2,0.8-0.5,1l-41.3,23.8c-0.4,0.2-0.8,0.2-1.1,0L129,81.6c-0.4-0.2-0.5-0.6-0.5-1
						V32.9c0-0.4,0.2-0.8,0.5-1l41.3-23.8c0.4-0.2,0.8-0.2,1.1,0l41.3,23.8C213.1,32.2,213.3,32.5,213.3,32.9z M211,79.9V33.5
						l-40.2-23.2l-40.2,23.2v46.4l40.2,23.2L211,79.9z"/>
				</g>
			</g>
		</g>
	</g>
</g>
</svg>
