<?xml version="1.0" encoding="utf-8"?>
<!-- Generator: Adobe Illustrator 25.0.1, SVG Export Plug-In . SVG Version: 6.00 Build 0)  -->
<svg version="1.1" id="Layer_1" xmlns="http://www.w3.org/2000/svg" xmlns:xlink="http://www.w3.org/1999/xlink" x="0px" y="0px"
	 viewBox="0 0 264 173.7" style="enable-background:new 0 0 264 173.7;" xml:space="preserve">
<style type="text/css">
	.st0{fill:#FFFFFF;}
	.st1{fill:#1C75BC;}
	.st2{fill:#FBB040;}
</style>
<path class="st0" d="M101.8,6.9L101.8,6.9c-14.7,5.4-22.3,21.6-16.9,36.3l38.8,106.5c5.4,14.7,21.6,22.3,36.3,16.9l0,0
	c14.7-5.4,22.3-21.6,16.9-36.3L138.1,23.9C132.7,9.2,116.5,1.6,101.8,6.9z"/>
<path class="st0" d="M179.7,6.9L179.7,6.9c-14.7,5.4-22.3,21.6-16.9,36.3l38.8,106.5c5.4,14.7,21.6,22.3,36.3,16.9l0,0
	c14.7-5.4,22.3-21.6,16.9-36.3L216,23.9C210.6,9.2,194.4,1.6,179.7,6.9z"/>
<path class="st0" d="M23.5,6.9L23.5,6.9C8.8,12.3,1.2,28.5,6.5,43.3l38.8,106.5c5.4,14.7,21.6,22.3,36.3,16.9l0,0
	c14.7-5.4,22.3-21.6,16.9-36.3L59.8,23.9C54.5,9.2,38.2,1.6,23.5,6.9z"/>
<path class="st1" d="M120.6,6.9L120.6,6.9c14.7,5.4,22.3,21.6,16.9,36.3L98.8,149.8c-5.4,14.7-21.6,22.3-36.3,16.9l0,0
	c-14.7-5.4-22.3-21.6-16.9-36.3L84.3,23.9C89.7,9.2,105.9,1.6,120.6,6.9z"/>
<path class="st1" d="M199,6.9L199,6.9c14.7,5.4,22.3,21.6,16.9,36.3l-38.8,106.5c-5.4,14.7-21.6,22.3-36.3,16.9l0,0
	c-14.7-5.4-22.3-21.6-16.9-36.3l38.8-106.5C168.1,9.2,184.3,1.6,199,6.9z"/>
<circle class="st2" cx="242.3" cy="21" r="14.2"/>
</svg>
