<?xml version="1.0" encoding="utf-8"?>
<!-- Generator: Adobe Illustrator 25.0.1, SVG Export Plug-In . SVG Version: 6.00 Build 0)  -->
<svg version="1.1" id="Layer_1" xmlns="http://www.w3.org/2000/svg" xmlns:xlink="http://www.w3.org/1999/xlink" x="0px" y="0px"
	 viewBox="0 0 238 206.1" style="enable-background:new 0 0 238 206.1;" xml:space="preserve">
<style type="text/css">
	.st0{fill:#4C4B4D;}
	.st1{fill:#7F7F80;}
	.st2{fill:#1E1E1F;}
	.st3{fill:#D0D0D0;}
</style>
<g>
	<g>
		<g>
			<g>
				<polygon class="st0" points="76.5,69.2 28.2,69.2 4.1,111 28.2,152.9 76.5,152.9 100.7,111 				"/>
			</g>
			<g>
				<polygon class="st1" points="131.7,5.2 83.3,5.2 59.2,47.1 83.3,88.9 131.7,88.9 155.8,47.1 				"/>
			</g>
			<g>
				<polygon class="st2" points="59.2,19.4 22.4,19.4 4.1,51.2 22.4,83 59.2,83 77.5,51.2 				"/>
			</g>
			<g>
				<path class="st3" d="M122.9,74.5H92.1c-0.3,0-0.5-0.1-0.6-0.4L76,47.4c-0.1-0.3-0.1-0.5,0-0.7l15.4-26.7
					c0.1-0.3,0.4-0.4,0.6-0.4h30.8c0.3,0,0.5,0.1,0.6,0.4L139,46.7c0.1,0.3,0.1,0.5,0,0.7l-15.4,26.7
					C123.4,74.4,123.2,74.5,122.9,74.5z M92.5,73h30l15-26l-15-26h-30l-15,26L92.5,73z"/>
			</g>
			<g>
				<path class="st3" d="M122.9,128H92.1c-0.3,0-0.5-0.1-0.6-0.4L76,100.8c-0.1-0.3-0.1-0.5,0-0.7l15.4-26.7
					c0.1-0.3,0.4-0.4,0.6-0.4h30.8c0.3,0,0.5,0.1,0.6,0.4l15.4,26.7c0.1,0.3,0.1,0.5,0,0.7l-15.4,26.7
					C123.4,127.8,123.2,128,122.9,128z M92.5,126.5h30l15-26l-15-26h-30l-15,26L92.5,126.5z"/>
			</g>
			<g>
				<path class="st3" d="M169,101.3h-30.8c-0.3,0-0.5-0.1-0.6-0.4l-15.4-26.7c-0.1-0.3-0.1-0.5,0-0.7l15.4-26.7
					c0.1-0.3,0.4-0.4,0.6-0.4H169c0.3,0,0.5,0.1,0.6,0.4l15.4,26.7c0.1,0.3,0.1,0.5,0,0.7l-15.4,26.7
					C169.5,101.2,169.3,101.3,169,101.3z M138.7,99.9h30l15-26l-15-26h-30l-15,26L138.7,99.9z"/>
			</g>
			<g>
				<path class="st3" d="M215.2,74.5h-30.8c-0.3,0-0.5-0.1-0.6-0.4l-15.4-26.7c-0.1-0.3-0.1-0.5,0-0.7L183.8,20
					c0.1-0.3,0.4-0.4,0.6-0.4h30.8c0.3,0,0.5,0.1,0.6,0.4l15.4,26.7c0.1,0.3,0.1,0.5,0,0.7l-15.4,26.7
					C215.7,74.4,215.5,74.5,215.2,74.5z M184.9,73.1h30l15-26l-15-26h-30l-15,26L184.9,73.1z"/>
			</g>
			<g>
				<path class="st3" d="M67.8,200.5H37c-0.3,0-0.5-0.1-0.6-0.4l-15.4-26.7c-0.1-0.3-0.1-0.5,0-0.7L36.4,146
					c0.1-0.3,0.4-0.4,0.6-0.4h30.8c0.3,0,0.5,0.1,0.6,0.4l15.4,26.7c0.1,0.3,0.1,0.5,0,0.7l-15.4,26.7
					C68.3,200.4,68.1,200.5,67.8,200.5z M37.4,199.1h30l15-26l-15-26h-30l-15,26L37.4,199.1z"/>
			</g>
		</g>
	</g>
</g>
</svg>
